<svg id="Layer_1" data-name="Layer 1" xmlns="http://www.w3.org/2000/svg" viewBox="0 0 2790.22 452.24"><defs><style>.cls-1{fill:#fefefe;}.cls-2{fill:#31cfa1;}.cls-3{fill:#a4e9d5;}.cls-4{fill:#6dddbd;}.cls-5{fill:#66dcb9;}.cls-6{fill:#6bdcbb;}.cls-7{fill:#a1e9d4;}</style></defs><title>listenpages-logo</title><path class="cls-1" d="M2088,453q-1041,0-2082,.11c-4.28,0-5.13-.95-5.1-5.13.23-25.66.12-51.32.12-77a6.67,6.67,0,0,1,1.69-1c2.93-.9,6-.56,8.94-.57q117.21,0,234.42,0c9.32,0,9.32,0,9.33-9.29,0-15.66,0-31.32,0-47,0-10.74.9-10.46-10.23-10.46H90.69c-12.22,0-12.31-.09-12.31-12.15q0-131.71,0-263.41c0-9.42,0-9.43-9.27-9.43q-29.49,0-59,0c-2.49,0-5,.23-7.44-.56A6.52,6.52,0,0,1,1,16c0-4.33.11-8.67-.05-13C.88,1.26,1.26.66,3,1A14.16,14.16,0,0,0,5.5,1H284c1.93,2.25,1.58,5,1.59,7.63,0,17.3,0,34.61,0,51.91,0,6.54.3,6.83,6.69,6.84q32.19,0,64.39,0c6.38,0,6.67-.31,6.69-6.84,0-17.3,0-34.61,0-51.91,0-2.63-.35-5.38,1.59-7.63Q1575.53,1,2786.05.88c4.37,0,5.06,1.08,5.05,5.17q-.2,136-.1,271.95c-2.24.06-2.14-1.85-2.39-3.15-4.57-24.15-20.18-39.45-40.62-50.92-10.51-5.89-21.74-10.11-33.07-14-14.79-5.13-29.9-9.4-44-16.33-4.8-2.36-9.49-4.87-13.34-8.68-8.39-8.29-6.86-21.12,3.34-27.19,9.06-5.39,19-5.84,29.07-4.52,19.63,2.56,37.43,10.39,54.91,19.22,10,5,8.81,7.5,15.39-4.68,6.33-11.72,12.83-23.36,19.34-35,3.28-5.85,3.1-6.37-2.65-9.72a193,193,0,0,0-78.63-25.9,135.57,135.57,0,0,0-58.57,6.49c-32.82,11.3-54.07,41.41-54.58,76.11-.31,21.18,5.86,39.38,21.14,54.13a92.59,92.59,0,0,0,29.3,18.77c17.75,7.33,36.29,12.24,54.55,18,7.31,2.33,14.56,4.8,21.2,8.74,7.45,4.43,12.13,10.5,10.81,19.67-1.25,8.68-6.76,13.91-14.73,16.62-12.06,4.09-24.35,3-36.57.9-22.92-4-43.28-14.07-62.5-26.77-4.88-3.22-4.83-3.22-8,1.49-8.43,12.41-16.36,25.13-24.65,37.64-3.66,5.52-3.44,6.23,1.86,10.05,28,20.16,59.16,31.42,93.44,34.84,19.85,2,39.34.64,58.32-5.14,31.61-9.63,53.14-29,58.79-63.11.33-2-.36-4.93,2.88-5.6q0,74.5.1,149c0,3.43-.67,4.1-4.1,4.09q-326-.16-652-.09c.49-2.83,2.94-2.25,4.7-2.48,14.38-1.9,28.68-4,42.57-8.53,40.87-13.19,64.9-41.36,74.17-82.79a228.56,228.56,0,0,0,5.11-49.59q.2-100.74.05-201.49c0-7.71,0-7.72-7.77-7.73q-30,0-60,0c-6.27,0-6.42.18-6.45,6.45,0,7,0,14,0,21,0,2.1.62,4.9-1.61,5.89s-3.81-1.43-5.31-2.87A190.6,190.6,0,0,0,2154.29,110c-14.48-9.72-30.76-13.45-47.73-14.52a122.25,122.25,0,0,0-58.49,10.38c-25.86,11.6-44.54,30.57-56.85,55.94-9.36,19.29-12.91,39.95-12.71,61.13.32,33.44,9.89,63.82,33,88.78,13.87,15,31,25,50.69,30.72a127.15,127.15,0,0,0,65.69,1.8c17.09-4,30.92-13.72,43.61-25.3a146.66,146.66,0,0,0,11.2-11.42c1-1.11,2.07-2.43,3.79-1.77s1.77,2.36,1.78,3.83c.2,15.75-.66,31.4-7.16,46-9.34,21.06-26.42,32-48.55,35.66-30.16,5-59.39,1.28-87.79-9.85a194.11,194.11,0,0,1-22.25-10.2c-3.56-1.94-5.37-1-6.89,2.51-6.68,15.44-13.8,30.69-20.94,45.93-1.68,3.59-.6,5.44,2.79,7,25.78,11.86,52.58,20,80.87,23.15C2081.61,450.19,2085.78,449,2088,453Z" transform="translate(-0.88 -0.88)"/><path class="cls-2" d="M2088,453c-5.57-2.39-11.62-1.95-17.43-2.8A258.15,258.15,0,0,1,1995,427c-3.12-1.52-4-2.68-2.36-6.22q11.54-24.36,22.42-49c1.62-3.66,2.84-4.45,6.71-2.4,19.82,10.51,40.55,18.51,63,21.17,17.46,2.07,34.88,2.5,52.16-1.46,26.69-6.12,43.27-23.61,47.93-50.62a153.2,153.2,0,0,0,1.77-31.82c-2.17-.4-2.57,1.44-3.46,2.42-15.29,16.7-32.14,31.34-54.85,36.55-69.83,16-139-23.61-149.49-101.3-4.41-32.69-.83-64.19,16.53-93,20-33.21,49.74-51.42,87.95-56.3a129,129,0,0,1,41.73,1.67c22.34,4.44,39.58,17.55,55.55,32.77a41.81,41.81,0,0,1,3.71,4.67l1.44-.7V107.7c0-8.7,0-8.7,8.54-8.7,21.16,0,42.33.07,63.49-.07,3.6,0,5.18.47,5.17,4.75-.18,70.49,0,141-.28,211.47a194,194,0,0,1-7.18,53.29c-11.61,40.3-38.28,65.22-78.25,76.55-12.85,3.64-26,5.62-39.25,7-1.07.11-2.41-.42-3,1h-2c-1.61-1-3.41-.28-5.11-.52-2,.26-4-.57-5.89.52h-21a10.23,10.23,0,0,0-7,0Z" transform="translate(-0.88 -0.88)"/><path class="cls-2" d="M2791,300c-2.09,3.35-1.65,7.29-2.5,10.93-7.33,31.73-28.4,50.3-58.46,58.88-47,13.41-91.58,4.84-134.11-17.57-7.67-4-14.76-9-21.86-14-3-2.12-3.75-3.64-1.44-7.07,9.58-14.22,18.91-28.63,28.09-43.11,1.94-3.06,3.14-3.12,6-1.09,18.24,12.9,37.93,22.78,59.94,27.47,13,2.76,26,4.1,39.06.46,10.33-2.89,15.53-9.81,15.39-19.42-.09-6.18-3.53-10.22-8.19-13.51-6.9-4.87-14.89-7.35-22.8-9.91-18.2-5.88-36.77-10.63-54.45-18s-32.66-18-42.59-34.75c-15.59-26.34-11.49-66.46,9-91,16.57-19.8,38.46-29.3,63.41-32.14,41.51-4.73,79.41,6.43,114.94,27.37,3.59,2.12,3.82,3.75,1.81,7.27q-12.41,21.67-24.18,43.7c-2,3.79-3.53,4.73-7.68,2.4-17.19-9.63-35.09-17.66-54.59-21.42-9.57-1.85-19.19-2.41-28.66.61-5.24,1.67-9.61,4.6-12.15,9.7-3.67,7.41-1.78,14.62,5.56,20.16,8.89,6.71,19.24,10.49,29.61,14.15,17.09,6,34.55,11.06,51,18.83,15,7.07,28.27,16.26,38,30A59.79,59.79,0,0,1,2790,275.44c.13.93-.18,2.06,1,2.56v2a45,45,0,0,0,0,15Z" transform="translate(-0.88 -0.88)"/><path class="cls-2" d="M365,1c0,21.47,0,42.94.16,64.42,0,2.83-.83,3.68-3.66,3.67q-37-.15-73.91,0c-3.46,0-3.63-1.51-3.63-4.19C284,43.61,284,22.31,284,1Z" transform="translate(-0.88 -0.88)"/><path class="cls-3" d="M1,16l1.11.11c2.21,2.77,1.5,6.06,1.5,9.15q.06,98.5,0,197,0,70,0,140c0,2.94.62,6.06-1.52,8.65L1,371Q1,193.5,1,16Z" transform="translate(-0.88 -0.88)"/><path class="cls-4" d="M2791,295a23.86,23.86,0,0,1,0-15Z" transform="translate(-0.88 -0.88)"/><path class="cls-5" d="M2094,453c2.33-1.69,4.67-1.5,7,0Z" transform="translate(-0.88 -0.88)"/><path class="cls-6" d="M2122,453c1.82-1.74,4-.8,6.09-.88q.4.34.22.62t-.31.27Z" transform="translate(-0.88 -0.88)"/><path class="cls-7" d="M2128,453a5.59,5.59,0,0,1,.09-.88c1.64.27,3.57-1,4.91.88Z" transform="translate(-0.88 -0.88)"/><path class="cls-2" d="M1408.69,193.15q0-85.71-.09-171.43c0-4.38.87-5.86,5.64-5.84,47.31.2,94.63,0,141.94.16,28.63.09,56,5.81,80.46,21.33,29.85,18.91,46.53,46.53,51.32,81.23,3.44,24.93,2,49.6-8.37,73-15.72,35.38-44,55.88-80.36,66.37A185.61,185.61,0,0,1,1548,265c-18.66,0-37.32.15-56-.06-4.09,0-5.31,1-5.29,5.18.18,32,0,64,.18,96,0,3.81-.82,5.1-4.9,5.06q-34.23-.31-68.47,0c-4.05,0-4.91-1.24-4.9-5.05Q1408.78,279.61,1408.69,193.15Z" transform="translate(-0.88 -0.88)"/><path class="cls-2" d="M982.5,262c-30,0-60,.08-90-.09-4,0-4.6.87-3.59,4.68,7.83,29.45,30.28,47.12,61,48.36,25.35,1,47.08-7.39,65.72-24.15,3.61-3.25,5.59-3.2,9.18.13,12,11.12,24.25,21.87,36.62,32.53,2.62,2.26,2.36,3.59.35,5.88-23.9,27.25-53.61,43.2-89.87,46.7-32.09,3.1-62.94-1-91.39-16.82-39.1-21.73-61-55.61-67.5-99.48-5.22-35.36,0-69.26,18.34-100.21,25-42.08,62.3-64.08,111.36-65.51,30.92-.9,59.42,6.48,84.06,26,24.83,19.7,39,45.89,46.08,76.3a194.06,194.06,0,0,1,4.48,61.51c-.32,3.61-1.57,4.21-4.82,4.2C1042.5,262,1012.5,262,982.5,262Z" transform="translate(-0.88 -0.88)"/><path class="cls-2" d="M2464.64,262c-29.83,0-59.67.13-89.5-.12-5.06,0-5.2,1.41-4,5.55,8.21,29,30.33,46.24,60.64,47.52,25.54,1.08,47.36-7.5,66.16-24.35,3.11-2.79,5-3.27,8.4-.09q17.94,16.67,36.64,32.51c3.28,2.79,2.56,4.39.25,7-22.09,24.78-49.1,40.5-82.25,45.12-32.44,4.53-63.93,1.53-93.45-13.33-42-21.12-65.65-55.87-72.46-101.93-5.87-39.74,1.29-77.16,24.67-110.32C2345,113.74,2380.14,95.33,2424.06,94c30.91-.9,59.46,6.23,84.2,25.65,25.09,19.69,39.45,46,46.56,76.56a195.78,195.78,0,0,1,4.55,61.51c-.35,4.06-2,4.34-5.22,4.33C2524.31,262,2494.47,262,2464.64,262Z" transform="translate(-0.88 -0.88)"/><path class="cls-2" d="M1873.67,215.78c3.31-29.08-14.22-50.64-43.16-53.81s-56.69,1.77-83.78,11.67c-5.87,2.15-5.88,2.11-7.89-4-5.32-16.11-10.56-32.24-16.06-48.29-1-3.05-.54-4.27,2.44-5.52a253.75,253.75,0,0,1,120.11-19.11c14.19,1.14,28,3.64,41.35,8.73,30.33,11.61,47.63,34.58,56.24,65,4.16,14.69,5.28,29.76,5.26,45q-.12,75.24.07,150.48c0,4.18-1.11,5.24-5.24,5.2-21.33-.21-42.66-.26-64,0-4.66.06-5.53-1.46-5.35-5.64.32-7.45.09-14.92.09-22.46-2.1-.16-2.69,1.5-3.66,2.46-25.13,24.93-55.9,32.91-90.25,29.94-18.22-1.57-35.42-6.48-50.22-17.63-24.41-18.38-33.15-43.63-31.21-73.33,1.44-22.13,9.71-41,26.94-55.39,12.68-10.61,27.53-16.75,43.54-20.1a193.51,193.51,0,0,1,100.07,5.34C1870.5,214.86,1872.06,215.3,1873.67,215.78Z" transform="translate(-0.88 -0.88)"/><path class="cls-2" d="M1187.69,136.56c5.49-5.91,10-10.94,14.74-15.84,36.19-37.82,95.94-31.2,123.61-8.63,17.5,14.27,26.7,33.19,30.94,54.93,2,10.36,2.32,20.83,2.32,31.33q0,83.48.09,167c0,4.39-.88,5.91-5.65,5.85q-33-.42-66,0c-4.84.06-5.63-1.56-5.61-5.89q.21-71.48.09-143c0-7.66-.23-15.28-1.88-22.84-6.1-27.92-27.51-38.18-52.1-34.88s-39.21,20-40.18,45.78c-.67,17.64-.35,35.32-.37,53,0,34.16-.08,68.32.08,102.47,0,4.06-.92,5.36-5.16,5.32q-33.74-.32-67.48,0c-4.06,0-4.92-1.22-4.92-5.05q.15-131,0-261.93c0-4.16,1.09-5.28,5.23-5.24,22.33.2,44.66.25,67,0,4.65-.06,5.49,1.44,5.37,5.64C1187.5,114.81,1187.69,125.11,1187.69,136.56Z" transform="translate(-0.88 -0.88)"/><path class="cls-2" d="M2.09,370.91c0-8.16-.09-16.32-.09-24.48Q2,184.51,2,22.61c0-2.16.07-4.33.1-6.49,24.66,0,49.32,0,74-.16,2.73,0,4.12.64,3.75,3.6a28.24,28.24,0,0,0,0,3.5q0,136-.14,271.92c0,5.23,1.49,6.16,6.35,6.14q82.23-.26,164.45-.1c7.06,0,6.26-1,6.27,6.48,0,19.66-.05,39.32.08,59,0,3.28-.57,4.64-4.3,4.63q-124.46-.16-248.93-.1C3.09,371,2.59,370.94,2.09,370.91Z" transform="translate(-0.88 -0.88)"/><path class="cls-2" d="M505.77,376.08c-41.66-.84-79.42-13.24-113-38.08-3-2.22-3.14-3.72-1.11-6.76q14.3-21.38,28.08-43.11c1.86-2.92,3-3.36,6-1.24,19.78,14,41.19,24.42,65.29,28.56,11.41,2,22.87,2.64,34.16-.66,10-2.92,15.11-9.82,15-19.21-.06-6.18-3.43-10.27-8.09-13.56-7-5-15.19-7.46-23.26-10.08-18-5.85-36.43-10.55-54-17.88s-32.69-17.93-42.64-34.67c-15.64-26.32-11.63-66.42,8.83-91,16.53-19.84,38.4-29.4,63.33-32.26,41.68-4.78,79.74,6.37,115.36,27.52,3,1.8,3.87,3.11,1.95,6.48-8.58,15-17,30.16-25.16,45.42-1.91,3.58-3.35,3.24-6.38,1.58-17.41-9.55-35.37-17.82-55-21.65-8.22-1.6-16.49-2.2-24.8-.52-4.65.94-9,2.57-12.5,5.83-7.38,6.79-7.41,17,.1,23.65s16.43,10,25.45,13.48c16.78,6.39,34.18,11.07,50.71,18.19,9.21,4,18.09,8.5,26.11,14.54,16.85,12.69,28.19,28.7,29.4,50.45,1.49,26.57-4.21,50.73-24.72,69.42-12.22,11.14-27,17.57-42.89,21.38A150.05,150.05,0,0,1,505.77,376.08Z" transform="translate(-0.88 -0.88)"/><path class="cls-2" d="M652.06,234.92c0-22.16-.07-44.33.08-66.49,0-3.45-.84-4.6-4.41-4.48-8.16.26-16.33,0-24.49.13-2.56,0-3.49-.7-3.48-3.37q.14-29.25,0-58.49c0-2.81,1.17-3.29,3.59-3.25,7.33.11,14.66.09,22,0,7.78-.07,6.68,1.08,6.71-6.47.06-19.16.1-38.33-.05-57.49,0-3.65.54-5.18,4.78-5.14,22.66.24,45.33.19,68,0,3.48,0,4.5.89,4.47,4.43-.17,20,0,40-.17,60,0,3.7.88,4.8,4.69,4.75,18.33-.21,36.66,0,55-.18,3.55,0,4.44,1,4.41,4.47q-.25,28,0,56c0,3.68-.84,4.79-4.66,4.75-18.16-.21-36.33,0-54.49-.19-4,0-5,1.13-4.94,5,.14,37.33.06,74.66.13,112a49.13,49.13,0,0,0,1,9.91c2.2,10.51,10.05,16.67,21.65,17.07a74.49,74.49,0,0,0,35.8-7.51c4.17-2,4.48-.79,4.45,3q-.22,26.49,0,53c0,2.86-.83,4.46-3.42,5.81-29.34,15.33-60.16,17.8-91.65,9.2-24-6.55-36.26-24.64-41.93-47.79-2.43-9.9-3.06-20.06-3.06-30.24Q652.07,264.17,652.06,234.92Z" transform="translate(-0.88 -0.88)"/><path class="cls-2" d="M363.07,235.09q0,65.49.08,131c0,3.74-.7,5.11-4.83,5.07-22.66-.22-45.32-.18-68,0-3.55,0-4.4-1-4.4-4.46q.14-131.72,0-263.45c0-3.1.6-4.31,4-4.29q34.49.23,69,0c3.92,0,4.15,1.61,4.14,4.72Q363,169.36,363.07,235.09Z" transform="translate(-0.88 -0.88)"/><path class="cls-1" d="M2113.83,284.94c-15.89-.27-35-7.53-48.32-25.94-23-31.72-12.54-91.69,43.22-100,21.42-3.2,41.21,1,57.75,15.69,15.21,13.51,21.17,31.06,20.05,51.09C2184.55,261.12,2156.63,285.11,2113.83,284.94Z" transform="translate(-0.88 -0.88)"/><path class="cls-1" d="M1486.81,140c0-16.49.08-33-.07-49.48,0-3.35.71-4.6,4.35-4.57,19.82.18,39.65-.08,59.47.16,12.1.14,23.82,2.45,34.61,8.3,15.51,8.41,23.25,21.74,24.84,39.05,3.34,36.24-20.92,60.29-56.53,61.34-21,.62-42,.1-63,.27-3.3,0-3.79-1.26-3.77-4.1C1486.86,174,1486.81,157,1486.81,140Z" transform="translate(-0.88 -0.88)"/><path class="cls-1" d="M945.12,214H892.63c-5.85,0-5.92,0-4.57-5.89a83.64,83.64,0,0,1,15.8-33.56c19.67-25,68.43-27,88.12,7.15a89.61,89.61,0,0,1,10.35,28.44c.63,3.33-.08,3.94-3.23,3.92C981.11,213.94,963.11,214,945.12,214Z" transform="translate(-0.88 -0.88)"/><path class="cls-1" d="M2426.74,214c-17.83,0-35.66-.08-53.48.07-3.56,0-4.43-.59-3.57-4.39,3.1-13.72,8.58-26.05,17.77-36.91,18.91-22.35,66-25.13,85.93,8A89.53,89.53,0,0,1,2484.33,210c.76,3.84-.58,4-3.61,4C2462.73,214,2444.73,214,2426.74,214Z" transform="translate(-0.88 -0.88)"/><path class="cls-1" d="M1875.06,272c1.71,29.44-20.9,46.36-46.1,50-11.14,1.59-22.24,1.76-33.06-1.89-12.64-4.27-21.42-12.19-22.81-26.14-1.52-15.19,3.22-27.57,17.29-35.23,13.7-7.47,28.6-8.26,43.67-7.47,12,.63,23.6,3.45,35,7.41,4.71,1.64,6.94,3.84,6.05,8.86A26,26,0,0,0,1875.06,272Z" transform="translate(-0.88 -0.88)"/></svg>